<?xml version="1.0" encoding="UTF-8"?>
<svg width="248.77" height="44.382" version="1.1" viewBox="0 0 65.821 11.742" xmlns="http://www.w3.org/2000/svg">
 <g fill="#fff">
  <path d="m13.496 9.5199a1.1116 1.1113 0 0 0-1.1117 1.1112 1.1116 1.1113 0 0 0 1.1117 1.1114 1.1116 1.1113 0 0 0 1.1115-1.1114 1.1116 1.1113 0 0 0-1.1115-1.1112zm0.04283 0.28776c0.99694 0.0452 1.0575 1.5659 0.01017 1.6465-1.0571 0.11867-1.1731-1.6233-0.10951-1.6462 0.0341-2e-3 0.06718-2e-3 0.09934-2.5e-4zm-12.959-5.771-0.074897 0.0907c-0.058784 0.0713-0.099492 0.18367-0.19008 0.52393-0.13174 0.49486-0.20013 0.83731-0.25931 1.2975-0.033908 0.26354-0.043368 0.64977-0.052213 2.1256-0.010787 1.7983 0.00488 2.3274 0.072941 2.4689 0.030914 0.0642 0.13617 0.1107 0.33049 0.14624 0.033489 7e-3 0.19224 8e-3 0.22136 0.0113l1.3662-3.6e-4a1.1116 1.1113 0 0 0 1.108 1.042 1.1116 1.1113 0 0 0 1.1094-1.0426l7.8921-2e-3c-0.0055-0.73934 0.55353-1.5041 1.3814-1.4639 0.66291-0.0154 1.2764 0.49197 1.3851 1.1458 0.04148 0.17172 0.04451 0.33841 0.01682 0.49558 0.0023 3e-3 0.0046 5e-3 7e-3 8e-3 0.04513 0.0555 0.06249 0.0581 0.3338 0.0538 0.17536-3e-3 0.42276-0.029 0.63946-0.0678 0.33349-0.0598 0.35757-0.068 0.4222-0.14486 0.11411-0.13568 0.14608-0.27375 0.14608-0.63009 0-0.67943-0.14922-1.0962-0.46483-1.2981-0.09233-0.059-0.1407-0.10874-0.15273-0.15697-0.08345-0.33497-0.56857-0.80358-1.1139-1.0758-0.13747-0.0686-0.27347-0.17762-0.59389-0.47602-0.91611-0.85317-1.4162-1.2959-2.2078-1.9554-0.73207-0.60985-0.92303-0.7554-1.1236-0.85588-0.40163-0.20116-0.3382-0.1927-1.6165-0.21525-0.05234-8.7e-4 -0.2425-2e-3 -0.31523-3e-3 -0.03566 4e-3 -0.0713 9e-3 -0.10697 0.0109-6e-3 0.0931-0.01039 0.18657-0.01427 0.28015 0.52965 0.0107 1.0591 0.024 1.5881 0.0442 1.2686 0.59546 2.2141 1.7287 3.2862 2.6125 0.52622 0.74048 1.5981 0.90772 1.9604 1.7659 0.36984 0.34297 0.6719 0.76717 0.58842 1.319 0.17307 0.6202-0.55649 0.50837-0.92888 0.55991-0.0655-0.51332-0.30441-1.1523-0.82406-1.4406-0.96173-0.67633-2.4153-0.0133-2.5492 1.1534-1.9556 0-6.9643 0.0267-6.965 0.0264h-4.406c-0.014135 0-0.11437-7e-3 -0.14374-8e-3 -0.011952-2.0119-0.27806-4.1195 0.38427-6.0564 1.0084 7e-3 2.0185 4e-3 3.0289 1e-3 0.13378-0.10436 0.2739-0.20026 0.41888-0.28795zm3.3341 6.6633c-0.02497 0.36744-0.2717 0.71689-0.75855 0.75423-0.52219 0.0587-0.81382-0.33601-0.84811-0.75364z" fill-opacity=".7" stroke-width=".12186"/>
  <path d="m7.0998-1.1225e-4c-0.08077 1.1e-4 -0.07689 0.10886-0.11129 0.16443-0.48564 1.2196-0.89948 2.4665-1.3561 3.6965 0.0028 0.12815-0.1293 0.18122-0.23466 0.19843-0.15372 0.0238-0.29107 0.0975-0.43553 0.15058-1.0772 0.45481-1.9494 1.4131-2.2341 2.5547-0.11378 0.46648-0.12525 0.96095-0.01805 1.4297 0.1209 0.50022 0.39734 0.96114 0.78052 1.3045-0.35292-0.10449-0.73983-0.16045-1.0355-0.39666-0.28277-0.24101-0.36565-0.62907-0.38435-0.98152-0.01256-0.16867 0.00175-0.33841 0.00489-0.50742 0.00309-0.0768-0.049634-0.16612-0.13664-0.1542-0.065168-9e-3 -0.053447 0.0707-0.06825 0.11501-0.062265 0.36269-0.00739 0.73266 0.056908 1.091 0.093848 0.3919 0.42454 0.68387 0.78562 0.8345 0.33235 0.14858 0.70224 0.15585 1.0589 0.18543 0.99478 0.0622 1.9917-9e-3 2.9871 0.0165 0.20142-0.0494 0.42246 0.0792 0.61346-0.0307 0.05411-0.0206 0.06204-0.0729 0.05806-0.12464 0.0021-0.30061-0.21318-0.55717-0.46471-0.69847-0.15487-0.0893-0.32772-0.14835-0.50547-0.169 0.14075-0.27832 0.27949-0.58399 0.24868-0.90321-0.04249-0.13231 0.06433-0.30848 0.21515-0.279 0.0597 0.0152 0.07131 0.0999 0.11288 0.1412 0.40575 0.62501 0.81779 1.2471 1.2196 1.874 0.03047 0.13294 0.17006 0.2008 0.29707 0.19997 0.15601 6e-3 0.30935-0.0358 0.46306-3e-3 0.12512 0.0171 0.27858 0.0207 0.36554-0.0886-0.3757-0.73206-0.86382-1.3978-1.2753-2.1091-0.05698-1.3668-0.0082-2.7358-0.02473-4.1036 0.44317 0.041 0.92354 8e-3 1.3031-0.24773 0.23921-0.18189 0.45908-0.44327 0.47314-0.75677 0.0029-0.0425 0.0049-0.0881-0.04492-0.10085-0.33828-0.19886-0.72933-0.28692-1.079-0.45584-0.03347-0.26041-0.20532-0.51328-0.4581-0.60081-0.10941-0.045-0.22887-0.13759-0.21223-0.2703-0.02252-0.19083 0.04818-0.41049-0.07564-0.57879-0.08315-0.0548-0.18518 0.0124-0.23238 0.0857-0.06432 0.089-0.12176 0.1878-0.21088 0.25308-0.08862 0.0486-0.20716-0.0353-0.18815-0.1358-0.09543-0.17456-0.03466-0.41393-0.18945-0.56094-0.02011-0.0156-0.04074-0.0388-0.06814-0.0385z" stroke-width=".043078"/>
  <g transform="matrix(.31436 0 0 .32867 21.911 76.5)" stroke-width=".27017px" aria-label="FURRY FREIGHT">
   <path d="m-15.094-226.99v4.908h8.1163v2.5666h-8.1163v5.8198h-3.3208v-15.861h11.696v2.5666z"/>
   <path d="m0.60614-213.5q-2.8917 0-4.432-1.4111-1.5303-1.4111-1.5303-4.0345v-8.7546h2.9315v8.5261q0 1.6595 0.78504 2.524 0.79497 0.8546 2.3253 0.8546 1.5701 0 2.4147-0.89435 0.84466-0.90428 0.84466-2.5837v-8.4267h2.9315v8.6056q0 2.6632-1.6496 4.1339-1.6396 1.4608-4.6208 1.4608z"/>
   <path d="m18.394-213.7-3.2494-5.3164h-3.4383v5.3164h-2.9315v-14.001h6.9958q2.5042 0 3.8656 1.0832 1.3614 1.0732 1.3614 3.0905 0 1.4707-0.83472 2.5439-0.83472 1.0633-2.2557 1.4011l3.7861 5.8828zm-0.3478-9.7086q0-2.0172-2.5837-2.0172h-3.7562v4.1339h3.8357q1.2322 0 1.8682-0.55648 0.63598-0.55648 0.63598-1.5601z"/>
   <path d="m32.385-213.7-3.2495-5.3164h-3.4383v5.3164h-2.9315v-14.001h6.9958q2.5042 0 3.8656 1.0832 1.3614 1.0732 1.3614 3.0905 0 1.4707-0.83472 2.5439-0.83472 1.0633-2.2557 1.4011l3.7861 5.8828zm-0.3478-9.7086q0-2.0172-2.5837-2.0172h-3.7562v4.1339h3.8357q1.2322 0 1.8682-0.55648 0.63598-0.55648 0.63598-1.5601z"/>
   <path d="m42.899-219.44v5.7437h-2.9215v-5.7437l-4.9885-8.2578h3.0706l3.3588 5.9226 3.3985-5.9226h3.0706z"/>
   <path d="m58.061-226.99v4.908h8.1163v2.5666h-8.1163v5.8198h-3.3208v-15.861h11.696v2.5666z"/>
   <path d="m77.557-213.7-3.2495-5.3164h-3.4383v5.3164h-2.9315v-14.001h6.9958q2.5042 0 3.8656 1.0832 1.3614 1.0732 1.3614 3.0905 0 1.4707-0.83472 2.5439-0.83472 1.0633-2.2557 1.4011l3.7861 5.8828zm-0.3478-9.7086q0-2.0172-2.5837-2.0172h-3.7562v4.1339h3.8357q1.2322 0 1.8682-0.55648t0.63598-1.5601z"/>
   <path d="m81.929-213.7v-14.001h11.01v2.2657h-8.0789v3.5178h7.4727v2.2657h-7.4727v3.6867h8.4863v2.2657z"/>
   <path d="m94.808-213.7v-14.001h2.9315v14.001z"/>
   <path d="m106.38-215.79q1.1428 0 2.216-0.32793 1.0732-0.33786 1.6595-0.85459v-1.9378h-3.4184v-2.1663h6.1014v5.1474q-1.113 1.1428-2.9016 1.7887-1.7788 0.64591-3.7364 0.64591-3.4184 0-5.2568-1.8881-1.8384-1.898-1.8384-5.376 0-3.4581 1.8483-5.2965 1.8483-1.8483 5.3164-1.8483 4.9288 0 6.2703 3.6469l-2.7029 0.81485q-0.43724-1.0633-1.3713-1.6098-0.93409-0.54655-2.1961-0.54655-2.0669 0-3.1401 1.2521t-1.0732 3.5873q0 2.375 1.103 3.6768 1.113 1.2918 3.1203 1.2918z"/>
   <path d="m123.87-213.7v-6.002h-6.1014v6.002h-2.9315v-14.001h2.9315v5.5748h6.1014v-5.5748h2.9315v14.001z"/>
   <path d="m135.15-225.43v11.736h-2.9315v-11.736h-4.5214v-2.2657h11.984v2.2657z"/>
  </g>
  <g transform="matrix(1.0663 0 0 1.0663 -11.538 -129.24)" fill-opacity=".7" stroke-width=".13644px" aria-label="SHELTER TRANSPORT">
   <path d="m32.314 130.61q0 0.44131-0.32832 0.67582-0.32618 0.23238-0.95936 0.23238-0.57775 0-0.90606-0.20466-0.32832-0.20467-0.42212-0.62039l0.6076-0.1002q0.06183 0.23877 0.24091 0.3475 0.17908 0.1066 0.49674 0.1066 0.65876 0 0.65876-0.4008 0-0.12792-0.07675-0.21106-0.07462-0.0831-0.21319-0.13858-0.13644-0.0554-0.52658-0.13431-0.33684-0.0789-0.46902-0.12578-0.13218-0.049-0.23878-0.11299-0.1066-0.0661-0.18121-0.15776-0.07462-0.0917-0.11726-0.21533-0.04051-0.12365-0.04051-0.28354 0-0.4072 0.30486-0.62252 0.307-0.21746 0.89114-0.21746 0.55856 0 0.83784 0.17482 0.28141 0.17482 0.36242 0.57775l-0.60973 0.0831q-0.0469-0.194-0.19187-0.29207-0.14284-0.0981-0.41146-0.0981-0.57135 0-0.57135 0.35817 0 0.11725 0.05969 0.19187 0.06182 0.0746 0.18121 0.12791 0.11939 0.0512 0.48394 0.13005 0.43278 0.0917 0.61826 0.17055 0.18761 0.0768 0.29634 0.18121 0.10873 0.10234 0.16629 0.24731 0.05756 0.14284 0.05756 0.33044z"/>
   <path d="m34.4 131.48v-1.1038h-1.1221v1.1038h-0.5391v-2.5749h0.5391v1.0252h1.1221v-1.0252h0.5391v2.5749z"/>
   <path d="m35.443 131.48v-2.5749h2.0248v0.41667h-1.4857v0.64692h1.3743v0.41667h-1.3743v0.67799h1.5607v0.41666z"/>
   <path d="m37.943 131.48v-2.5749h0.5391v2.1582h1.3816v0.41666z"/>
   <path d="m41.116 129.32v2.1582h-0.5391v-2.1582h-0.8315v-0.41667h2.2039v0.41667z"/>
   <path d="m42.242 131.48v-2.5749h2.0248v0.41667h-1.4857v0.64692h1.3743v0.41667h-1.3743v0.67799h1.5607v0.41666z"/>
   <path d="m46.511 131.48-0.59758-0.9777h-0.6323v0.9777h-0.5391v-2.5749h1.2865q0.46052 0 0.71089 0.1992 0.25036 0.19737 0.25036 0.56834 0 0.27047-0.15351 0.46783-0.15351 0.19554-0.41484 0.25768l0.69627 1.0819zm-0.06396-1.7854q0-0.37097-0.47514-0.37097h-0.69078v0.76022h0.7054q0.22661 0 0.34356-0.10234 0.11696-0.10233 0.11696-0.28691z"/>
   <path d="m50.055 128.96v2.5178h-0.62892v-2.5178h-0.97002v-0.48608h2.5711v0.48608z"/>
   <path d="m53.095 131.48-0.59758-0.9777h-0.6323v0.9777h-0.5391v-2.5749h1.2865q0.46052 0 0.71089 0.1992 0.25036 0.19737 0.25036 0.56834 0 0.27047-0.15351 0.46783-0.15351 0.19554-0.41484 0.25768l0.69627 1.0819zm-0.06396-1.7854q0-0.37097-0.47514-0.37097h-0.69078v0.76022h0.7054q0.22661 0 0.34356-0.10234 0.11696-0.10233 0.11696-0.28691z"/>
   <path d="m55.851 131.48-0.22843-0.65789h-0.98135l-0.22843 0.65789h-0.5391l0.93932-2.5749h0.63596l0.93566 2.5749zm-0.72002-2.1783-0.01096 0.0402q-0.01828 0.0658-0.04386 0.14985-0.02558 0.0841-0.31432 0.9247h0.74013l-0.25402-0.74012-0.07858-0.24854z"/>
   <path d="m58.304 131.48-1.1221-1.9828q0.03289 0.28875 0.03289 0.46418v1.5186h-0.4788v-2.5749h0.61586l1.1385 1.9993q-0.0329-0.27595-0.0329-0.50256v-1.4967h0.4788v2.5749z"/>
   <path d="m61.54 130.74q0 0.37828-0.28143 0.57931-0.2796 0.19919-0.82236 0.19919-0.49524 0-0.77668-0.17544-0.28143-0.17543-0.36184-0.53179l0.52083-0.0859q0.053 0.20467 0.2065 0.29788 0.15351 0.0914 0.4258 0.0914 0.56469 0 0.56469-0.34357 0-0.10964-0.06579-0.18091-0.06396-0.0713-0.18275-0.11879-0.11696-0.0475-0.45138-0.11513-0.28874-0.0676-0.40204-0.10782-0.1133-0.042-0.20468-0.0969-0.09137-0.0566-0.15534-0.13523-0.06396-0.0786-0.10051-0.18458-0.03472-0.10599-0.03472-0.24305 0-0.34905 0.26133-0.53362 0.26316-0.1864 0.76388-0.1864 0.4788 0 0.7182 0.14985 0.24123 0.14985 0.31067 0.49524l-0.52266 0.0713q-0.0402-0.1663-0.16447-0.25037-0.12244-0.0841-0.3527-0.0841-0.48976 0-0.48976 0.30701 0 0.10051 0.05117 0.16448 0.053 0.064 0.15534 0.10964 0.10234 0.0439 0.41484 0.11148 0.37098 0.0786 0.52997 0.1462 0.16082 0.0658 0.25402 0.15533 0.0932 0.0877 0.14254 0.21199 0.04934 0.12244 0.04934 0.28326z"/>
   <path d="m64.058 129.72q0 0.24853-0.1133 0.44407t-0.32529 0.30336q-0.21016 0.106-0.50073 0.106h-0.63962v0.90642h-0.5391v-2.5749h1.1568q0.46235 0 0.71089 0.21382 0.25036 0.21199 0.25036 0.60124zm-0.54276 9e-3q0-0.40569-0.4788-0.40569h-0.55738v0.83515h0.572q0.22295 0 0.34356-0.10965 0.12061-0.11147 0.12061-0.31981z"/>
   <path d="m66.944 130.18q0 0.40204-0.15899 0.70723t-0.45504 0.46783q-0.29605 0.16082-0.69078 0.16082-0.60672 0-0.95211-0.35636-0.34356-0.35818-0.34356-0.97952 0-0.61951 0.34356-0.96673t0.95577-0.34722 0.95577 0.35087q0.34539 0.35088 0.34539 0.96308zm-0.55007 0q0-0.41666-0.19737-0.65241-0.19737-0.23757-0.55372-0.23757-0.36184 0-0.55921 0.23574-0.19737 0.23392-0.19737 0.65424 0 0.42397 0.20102 0.66885 0.20285 0.24306 0.5519 0.24306 0.36184 0 0.55738-0.23757 0.19737-0.23758 0.19737-0.67434z"/>
   <path d="m69.119 131.48-0.59758-0.9777h-0.6323v0.9777h-0.5391v-2.5749h1.2865q0.46052 0 0.71089 0.1992 0.25036 0.19737 0.25036 0.56834 0 0.27047-0.15351 0.46783-0.15351 0.19554-0.41484 0.25768l0.69627 1.0819zm-0.06396-1.7854q0-0.37097-0.47514-0.37097h-0.69078v0.76022h0.7054q0.22661 0 0.34356-0.10234 0.11696-0.10233 0.11696-0.28691z"/>
   <path d="m71.216 129.32v2.1582h-0.5391v-2.1582h-0.8315v-0.41667h2.2039v0.41667z"/>
  </g>
 </g>
</svg>
