<?xml version="1.0" encoding="UTF-8"?>
<svg version="1.1" viewBox="0 0 200 200" xmlns="http://www.w3.org/2000/svg" xmlns:cc="http://creativecommons.org/ns#" xmlns:dc="http://purl.org/dc/elements/1.1/" xmlns:rdf="http://www.w3.org/1999/02/22-rdf-syntax-ns#">
 <metadata>
  <rdf:RDF>
   <cc:Work rdf:about="">
    <dc:format>image/svg+xml</dc:format>
    <dc:type rdf:resource="http://purl.org/dc/dcmitype/StillImage"/>
    <dc:title/>
   </cc:Work>
  </rdf:RDF>
 </metadata>
 <g transform="translate(40.7 255.16)">
  <g transform="matrix(.33223 0 0 .33213 -40.368 -254.77)" style="fill:#ffffff;stroke-opacity:.17677;stroke-width:2;stroke:#000000">
   <path d="m80.753 0c34.676 10.583 71.485 16.277 109.62 16.277 38.139 0 74.947-5.6934 109.62-16.276 34.676 10.583 71.484 16.276 109.62 16.276s74.948-5.6934 109.62-16.277c50.565 63.908 80.753 144.68 80.753 232.5 0 181.42-128.83 332.75-300 367.5-171.17-34.745-300-186.08-300-367.5 0-87.822 30.188-168.59 80.753-232.5z" style="fill:#ffffff;stroke-opacity:.17677;stroke-width:2;stroke:#000000"/>
   <path d="m80.753 0c34.676 10.583 71.485 16.277 109.62 16.277 38.139 0 74.947-5.6934 109.62-16.276 34.676 10.583 71.484 16.276 109.62 16.276s74.948-5.6934 109.62-16.277c50.565 63.908 80.753 144.68 80.753 232.5 0 181.42-128.83 332.75-300 367.5-171.17-34.745-300-186.08-300-367.5 0-87.822 30.188-168.59 80.753-232.5z" style="fill:#ffffff;stroke-linecap:round;stroke-linejoin:round;stroke-opacity:.17677;stroke-width:2;stroke:#000000"/>
  </g>
  <g transform="matrix(.33514 0 0 .3361 -41.242 -256.82)" style="fill:#ec792d">
   <path d="m15 232.5c0-31.979 4.1694-62.984 11.995-92.501h546.01c7.8242 29.517 11.994 60.522 11.994 92.501 0 173.11-122.17 317.67-285 352.18-162.83-34.505-285-179.07-285-352.18z" style="fill:#ec792d"/>
  </g>
  <g transform="matrix(.33695 0 0 .34171 -41.786 -256.63)" style="fill:#0b4969">
   <path d="m31.324 125c12.255-39.221 31.039-75.559 55.079-107.74 33.102 9.1328 67.968 14.013 103.97 14.013 38.061 0 74.848-5.4517 109.62-15.618 34.775 10.166 71.562 15.618 109.62 15.618 36.006 0 70.873-4.8799 103.97-14.013 24.039 32.181 42.823 68.519 55.078 107.74z" style="fill:#0b4969"/>
  </g>
  <path d="m103.42-123.73a9.1219 9.1193 0 0 0-9.1228 9.1185 9.1219 9.1193 0 0 0 9.1228 9.1201 9.1219 9.1193 0 0 0 9.1212-9.1201 9.1219 9.1193 0 0 0-9.1212-9.1185zm0.35143 2.3614c8.1809 0.37096 8.678 12.85 0.0835 13.511-8.6744 0.97378-9.6267-13.321-0.89864-13.509 0.27984-0.014 0.55129-0.0135 0.81519-2e-3zm-106.34-47.357-0.61461 0.74437c-0.48238 0.58506-0.81643 1.5072-1.5598 4.2994-1.0811 4.0608-1.6423 6.871-2.1279 10.647-0.27823 2.1626-0.35586 5.332-0.42846 17.443-0.088502 14.757 0.040044 19.099 0.59856 20.26 0.25369 0.52688 1.1174 0.90835 2.712 1.2 0.27481 0.0565 1.5775 0.0697 1.8165 0.093l11.211-3e-3a9.1219 9.1193 0 0 0 9.0923 8.5506 9.1219 9.1193 0 0 0 9.1035-8.5554l64.763-0.0176c-0.04501-6.067 4.5423-12.343 11.336-12.013 5.4399-0.12604 10.474 4.0371 11.366 9.4025 0.34037 1.4092 0.36531 2.777 0.138 4.0668 0.0186 0.0217 0.0376 0.0413 0.0577 0.0658 0.37034 0.45502 0.51277 0.47653 2.7392 0.44117 1.439-0.0248 3.4692-0.23792 5.2474-0.55668 2.7366-0.49068 2.9342-0.55808 3.4646-1.1887 0.93637-1.1134 1.1987-2.2464 1.1987-5.1705 0-5.5755-1.2245-8.9959-3.8144-10.652-0.75766-0.48454-1.1546-0.89245-1.2533-1.2882-0.68478-2.7488-4.6657-6.5942-9.1404-8.8282-1.1281-0.56314-2.2441-1.4576-4.8735-3.9063-7.5176-7.0011-11.621-10.634-18.117-16.046-6.0074-5.0044-7.5744-6.1988-9.2207-7.0234-3.2958-1.6507-2.7753-1.5813-13.265-1.7663-0.42946-7e-3 -1.99-0.0135-2.5868-0.0208-0.2926 0.0322-0.58512 0.076-0.87778 0.0898-0.04932 0.76412-0.08525 1.531-0.11714 2.2989 4.3463 0.0877 8.691 0.19705 13.032 0.36256 10.41 4.8863 18.169 14.186 26.967 21.438 4.3182 6.0764 13.114 7.4488 16.087 14.491 3.0349 2.8144 5.5136 6.2954 4.8286 10.824 1.4202 5.0894-4.5666 4.1717-7.6224 4.5946-0.53749-4.2123-2.498-9.4558-6.7623-11.822-7.892-5.55-19.82-0.10947-20.919 9.465-16.048 0-57.149 0.21904-57.155 0.21658h-36.156c-0.11601 0-0.93849-0.055-1.1795-0.0674-0.098074-16.51-2.2818-33.805 3.1533-49.699 8.2752 0.0564 16.564 0.036 24.855 0.01 1.0978-0.85645 2.2476-1.6434 3.4373-2.363zm27.36 54.679c-0.20491 3.0152-2.2296 5.8828-6.2247 6.1892-4.2851 0.48149-6.6782-2.7573-6.9596-6.1844z" style="fill:#ffffff"/>
  <path d="m50.938-201.89c-0.66276 9.5e-4 -0.63094 0.89335-0.91328 1.3493-3.9852 10.008-7.3812 20.24-11.128 30.334 0.02251 1.0516-1.061 1.4871-1.9256 1.6283-1.2614 0.1955-2.3885 0.80044-3.574 1.2357-8.8397 3.7322-15.997 11.596-18.333 20.964-0.93372 3.828-1.0278 7.8856-0.14814 11.732 0.9921 4.1048 3.2606 7.8871 6.405 10.705-2.8961-0.85744-6.0711-1.3167-8.4976-3.255-2.3204-1.9778-3.0005-5.1622-3.154-8.0544-0.10305-1.3841 0.014288-2.777 0.040092-4.1639 0.025469-0.63042-0.4073-1.3632-1.1213-1.2654-0.53477-0.0746-0.43859 0.57973-0.56006 0.94381-0.51095 2.9762-0.060615 6.0122 0.46699 8.9524 0.77012 3.216 3.4838 5.6119 6.4468 6.848 2.7273 1.2192 5.7626 1.2789 8.6896 1.5216 8.1632 0.51072 16.344-0.0764 24.512 0.13509 1.6529-0.40496 3.4667 0.65029 5.0341-0.25185 0.44404-0.16863 0.50909-0.59775 0.4764-1.0228 0.01687-2.4668-1.7494-4.5721-3.8134-5.7316-1.2709-0.73281-2.6893-1.2174-4.1479-1.3869 1.155-2.2839 2.2935-4.7922 2.0407-7.4117-0.34866-1.0858 0.5279-2.5314 1.7655-2.2895 0.48991 0.1246 0.58513 0.81973 0.92626 1.1587 3.3296 5.1288 6.7108 10.234 10.008 15.378 0.25002 1.0909 1.3955 1.6478 2.4378 1.641 1.2802 0.0474 2.5385-0.2938 3.7999-0.0242 1.0267 0.14055 2.286 0.16977 2.9996-0.7267-3.083-6.0073-7.0885-11.47-10.465-17.307-0.46758-11.216-0.06761-22.45-0.20295-33.674 3.6367 0.33659 7.5786 0.0618 10.693-2.0329 1.963-1.4926 3.7672-3.6375 3.8826-6.2101 0.0236-0.34894 0.04047-0.72258-0.36862-0.82752-2.7759-1.6319-5.9849-2.3545-8.8546-3.7407-0.27468-2.1369-1.6849-4.212-3.7592-4.9302-0.8978-0.36903-1.8781-1.1291-1.7416-2.2181-0.18483-1.566 0.39538-3.3685-0.62073-4.7496-0.68229-0.44989-1.5196 0.10174-1.9069 0.70289-0.52782 0.73006-0.99917 1.5411-1.7305 2.0768-0.72718 0.39888-1.7-0.28954-1.544-1.1144-0.78307-1.4324-0.28439-3.3967-1.5546-4.6031-0.16502-0.12798-0.3343-0.31842-0.55914-0.31583z" style="fill:#ffffff;stroke-width:.3535"/>
  <g transform="scale(.97799 1.0225)" style="fill:#ffffff" aria-label="FURRY FREIGHT">
   <path d="m-15.094-226.99v4.908h8.1163v2.5666h-8.1163v5.8198h-3.3208v-15.861h11.696v2.5666z" style="fill:#ffffff;stroke-width:.27017px"/>
   <path d="m0.60614-213.5q-2.8917 0-4.432-1.4111-1.5303-1.4111-1.5303-4.0345v-8.7546h2.9315v8.5261q0 1.6595 0.78504 2.524 0.79497 0.8546 2.3253 0.8546 1.5701 0 2.4147-0.89435 0.84466-0.90428 0.84466-2.5837v-8.4267h2.9315v8.6056q0 2.6632-1.6496 4.1339-1.6396 1.4608-4.6208 1.4608z" style="fill:#ffffff;stroke-width:.27017px"/>
   <path d="m18.394-213.7-3.2494-5.3164h-3.4383v5.3164h-2.9315v-14.001h6.9958q2.5042 0 3.8656 1.0832 1.3614 1.0732 1.3614 3.0905 0 1.4707-0.83472 2.5439-0.83472 1.0633-2.2557 1.4011l3.7861 5.8828zm-0.3478-9.7086q0-2.0172-2.5837-2.0172h-3.7562v4.1339h3.8357q1.2322 0 1.8682-0.55648 0.63598-0.55648 0.63598-1.5601z" style="fill:#ffffff;stroke-width:.27017px"/>
   <path d="m32.385-213.7-3.2495-5.3164h-3.4383v5.3164h-2.9315v-14.001h6.9958q2.5042 0 3.8656 1.0832 1.3614 1.0732 1.3614 3.0905 0 1.4707-0.83472 2.5439-0.83472 1.0633-2.2557 1.4011l3.7861 5.8828zm-0.3478-9.7086q0-2.0172-2.5837-2.0172h-3.7562v4.1339h3.8357q1.2322 0 1.8682-0.55648 0.63598-0.55648 0.63598-1.5601z" style="fill:#ffffff;stroke-width:.27017px"/>
   <path d="m42.899-219.44v5.7437h-2.9215v-5.7437l-4.9885-8.2578h3.0706l3.3588 5.9226 3.3985-5.9226h3.0706z" style="fill:#ffffff;stroke-width:.27017px"/>
   <path d="m58.061-226.99v4.908h8.1163v2.5666h-8.1163v5.8198h-3.3208v-15.861h11.696v2.5666z" style="fill:#ffffff;stroke-width:.27017px"/>
   <path d="m77.557-213.7-3.2495-5.3164h-3.4383v5.3164h-2.9315v-14.001h6.9958q2.5042 0 3.8656 1.0832 1.3614 1.0732 1.3614 3.0905 0 1.4707-0.83472 2.5439-0.83472 1.0633-2.2557 1.4011l3.7861 5.8828zm-0.3478-9.7086q0-2.0172-2.5837-2.0172h-3.7562v4.1339h3.8357q1.2322 0 1.8682-0.55648t0.63598-1.5601z" style="fill:#ffffff;stroke-width:.27017px"/>
   <path d="m81.929-213.7v-14.001h11.01v2.2657h-8.0789v3.5178h7.4727v2.2657h-7.4727v3.6867h8.4863v2.2657z" style="fill:#ffffff;stroke-width:.27017px"/>
   <path d="m94.808-213.7v-14.001h2.9315v14.001z" style="fill:#ffffff;stroke-width:.27017px"/>
   <path d="m106.38-215.79q1.1428 0 2.216-0.32793 1.0732-0.33786 1.6595-0.85459v-1.9378h-3.4184v-2.1663h6.1014v5.1474q-1.113 1.1428-2.9016 1.7887-1.7788 0.64591-3.7364 0.64591-3.4184 0-5.2568-1.8881-1.8384-1.898-1.8384-5.376 0-3.4581 1.8483-5.2965 1.8483-1.8483 5.3164-1.8483 4.9288 0 6.2703 3.6469l-2.7029 0.81485q-0.43724-1.0633-1.3713-1.6098-0.93409-0.54655-2.1961-0.54655-2.0669 0-3.1401 1.2521-1.0732 1.2521-1.0732 3.5873 0 2.375 1.103 3.6768 1.113 1.2918 3.1203 1.2918z" style="fill:#ffffff;stroke-width:.27017px"/>
   <path d="m123.87-213.7v-6.002h-6.1014v6.002h-2.9315v-14.001h2.9315v5.5748h6.1014v-5.5748h2.9315v14.001z" style="fill:#ffffff;stroke-width:.27017px"/>
   <path d="m135.15-225.43v11.736h-2.9315v-11.736h-4.5214v-2.2657h11.984v2.2657z" style="fill:#ffffff;stroke-width:.27017px"/>
  </g>
 </g>
</svg>
